# xmcd CD database file
#
# Track frame offsets:
#	150
#	20875
#	44599
#	62981
#	78115
#	99278
#	118985
#	144641
#	174340
#	197174
#
# Disc length: 2958 seconds
#
# Revision: 2
# Processed by: cddbd v1.5.1PL0 Copyright (c) Steve Scherf et al.
# Submitted via: CDex 1.51
#
DISCID=8d0b8c0a
DTITLE=桜井智 - Actress "Jitterbug"（ジルバ）
DYEAR=1998
DGENRE=JPop
TTITLE0=Dance Dance Dance
TTITLE1=Body Talks
TTITLE2=I Wanna Be Free
TTITLE3=Lip Off
TTITLE4=なぜか切なくて
TTITLE5=Friends
TTITLE6=Anniversary
TTITLE7=Good-Bye!
TTITLE8=Jitterbug (Debut Version)
TTITLE9=Finale
EXTD=YEAR: 1998
EXTT0=
EXTT1=
EXTT2=
EXTT3=
EXTT4=
EXTT5=
EXTT6=
EXTT7=
EXTT8=
EXTT9=
PLAYORDER=
